<svg version="1.1" viewBox="0.0 0.0 384.0 384.0" fill="none" stroke="none" stroke-linecap="square" stroke-miterlimit="10" xmlns:xlink="http://www.w3.org/1999/xlink" xmlns="http://www.w3.org/2000/svg"><clipPath id="p.0"><path d="m0 0l384.0 0l0 384.0l-384.0 0l0 -384.0z" clip-rule="nonzero"/></clipPath><g clip-path="url(#p.0)"><path fill="#000000" fill-opacity="0.0" d="m0 0l384.0 0l0 384.0l-384.0 0z" fill-rule="evenodd"/><path fill="#000000" d="m0 0l384.0 0l0 384.0l-384.0 0z" fill-rule="evenodd"/><path fill="#ffffff" d="m208.52113 24.000145c-27.540466 0 -52.98262 4.700838 -76.32645 14.102486c-23.343819 9.329899 -42.753296 21.638165 -58.228416 36.924828c-16.26199 15.932579 -28.67706 33.659378 -37.2452 53.180367c-8.480711 19.449234 -12.721073 40.369705 -12.721073 62.761444c0 51.45793 15.868553 92.47354 47.605663 123.046875c31.737114 30.573334 75.67072 45.859985 131.80081 45.859985c30.16336 0 59.408707 -7.428009 87.73607 -22.284058c28.327332 -14.856079 51.146576 -34.98709 68.45773 -60.393097l-25.17987 -13.5642395c-14.688232 20.238708 -30.644226 35.417694 -47.86795 45.53705c-17.136292 10.119354 -38.425507 15.179016 -63.86766 15.179016c-35.14688 0 -63.561646 -12.631256 -85.24431 -37.893707c-21.595222 -25.334259 -32.39283 -58.024734 -32.39283 -98.07149c0 -25.406006 3.0163345 -47.259476 9.049011 -65.56041c6.032669 -18.300934 13.901375 -32.83403 23.606117 -43.59929c10.753891 -11.841782 21.813797 -19.951595 33.179703 -24.329475c11.453339 -4.4496307 23.474976 -6.6744576 36.064896 -6.6744576c10.753906 0 20.764648 1.1483002 30.032227 3.4448814c9.355011 2.2248268 16.393143 6.6744576 21.11435 13.348915c-0.52456665 4.736717 -2.3605957 12.236519 -5.508087 22.49939c-3.1474762 10.191116 -4.721222 20.131027 -4.721222 29.819756c0 7.9662933 4.2403564 15.179016 12.721069 21.638168c8.568146 6.459152 20.589783 9.688736 36.06491 9.688736c14.425964 0 24.786407 -4.1266785 31.08139 -12.380051c6.2949524 -8.325127 9.442444 -17.870323 9.442444 -28.635582c0 -25.836617 -11.934204 -46.218826 -35.802612 -61.146656c-23.868408 -14.999582 -54.81865 -22.499386 -92.85072 -22.499386z" fill-rule="evenodd"/><path stroke="#000000" stroke-width="1.0" stroke-linejoin="round" stroke-linecap="butt" d="m208.52113 24.000145c-27.540466 0 -52.98262 4.700838 -76.32645 14.102486c-23.343819 9.329899 -42.753296 21.638165 -58.228416 36.924828c-16.26199 15.932579 -28.67706 33.659378 -37.2452 53.180367c-8.480711 19.449234 -12.721073 40.369705 -12.721073 62.761444c0 51.45793 15.868553 92.47354 47.605663 123.046875c31.737114 30.573334 75.67072 45.859985 131.80081 45.859985c30.16336 0 59.408707 -7.428009 87.73607 -22.284058c28.327332 -14.856079 51.146576 -34.98709 68.45773 -60.393097l-25.17987 -13.5642395c-14.688232 20.238708 -30.644226 35.417694 -47.86795 45.53705c-17.136292 10.119354 -38.425507 15.179016 -63.86766 15.179016c-35.14688 0 -63.561646 -12.631256 -85.24431 -37.893707c-21.595222 -25.334259 -32.39283 -58.024734 -32.39283 -98.07149c0 -25.406006 3.0163345 -47.259476 9.049011 -65.56041c6.032669 -18.300934 13.901375 -32.83403 23.606117 -43.59929c10.753891 -11.841782 21.813797 -19.951595 33.179703 -24.329475c11.453339 -4.4496307 23.474976 -6.6744576 36.064896 -6.6744576c10.753906 0 20.764648 1.1483002 30.032227 3.4448814c9.355011 2.2248268 16.393143 6.6744576 21.11435 13.348915c-0.52456665 4.736717 -2.3605957 12.236519 -5.508087 22.49939c-3.1474762 10.191116 -4.721222 20.131027 -4.721222 29.819756c0 7.9662933 4.2403564 15.179016 12.721069 21.638168c8.568146 6.459152 20.589783 9.688736 36.06491 9.688736c14.425964 0 24.786407 -4.1266785 31.08139 -12.380051c6.2949524 -8.325127 9.442444 -17.870323 9.442444 -28.635582c0 -25.836617 -11.934204 -46.218826 -35.802612 -61.146656c-23.868408 -14.999582 -54.81865 -22.499386 -92.85072 -22.499386z" fill-rule="evenodd"/></g></svg>