<svg version="1.1" viewBox="0.0 0.0 384.0 384.0" fill="none" stroke="none" stroke-linecap="square" stroke-miterlimit="10" xmlns:xlink="http://www.w3.org/1999/xlink" xmlns="http://www.w3.org/2000/svg"><clipPath id="p.0"><path d="m0 0l384.0 0l0 384.0l-384.0 0l0 -384.0z" clip-rule="nonzero"/></clipPath><g clip-path="url(#p.0)"><path fill="#000000" fill-opacity="0.0" d="m0 0l384.0 0l0 384.0l-384.0 0z" fill-rule="evenodd"/><path fill="#000000" d="m0 0l384.0 0l0 384.0l-384.0 0z" fill-rule="evenodd"/><path fill="#ffffff" d="m206.16098 48.000145c-23.606125 0 -45.41368 4.0292892 -65.42267 12.087845c-20.008995 7.997055 -36.645683 18.546997 -49.910072 31.649857c-13.93885 13.656494 -24.580345 28.850891 -31.924465 45.583168c-7.2691803 16.670776 -10.903778 34.602615 -10.903778 53.795517c0 44.106796 13.60162 79.26305 40.80486 105.468765c27.20324 26.205688 64.86061 39.308563 112.97212 39.308563c25.854324 0 50.92177 -6.3668823 75.20236 -19.100647c24.280579 -12.733765 43.839905 -29.988922 58.67804 -51.765503l-21.582733 -11.62648c-12.589935 17.347458 -26.26648 30.358017 -41.029663 39.031754c-14.688263 8.673706 -32.936157 13.01059 -54.743713 13.01059c-30.1259 0 -54.481415 -10.826813 -73.06656 -32.480316c-18.510193 -21.715088 -27.76529 -49.735504 -27.76529 -84.06128c0 -21.77658 2.585434 -40.508133 7.756302 -56.19464c5.170868 -15.686523 11.915466 -28.143463 20.23381 -37.37082c9.217621 -10.150101 18.69754 -17.101372 28.439758 -20.853844c9.817139 -3.8139648 20.121399 -5.7209625 30.912766 -5.7209625c9.217621 0 17.798264 0.98426056 25.741913 2.9527588c8.018585 1.90699 14.051254 5.7209625 18.098022 11.441925c-0.449646 4.0600433 -2.0233917 10.488441 -4.721222 19.285187c-2.6978455 8.735245 -4.046768 17.255173 -4.046768 25.559792c0 6.828247 3.6345825 13.01059 10.903778 18.546997c7.344116 5.5364227 17.648376 8.304626 30.91278 8.304626c12.365112 0 21.245483 -3.53714 26.641174 -10.611465c5.395691 -7.1358185 8.093536 -15.317413 8.093536 -24.544777c0 -22.145676 -10.229309 -39.616135 -30.687958 -52.411423c-20.458649 -12.856785 -46.98741 -19.285187 -79.586334 -19.285187z" fill-rule="evenodd"/><path stroke="#000000" stroke-width="1.0" stroke-linejoin="round" stroke-linecap="butt" d="m206.16098 48.000145c-23.606125 0 -45.41368 4.0292892 -65.42267 12.087845c-20.008995 7.997055 -36.645683 18.546997 -49.910072 31.649857c-13.93885 13.656494 -24.580345 28.850891 -31.924465 45.583168c-7.2691803 16.670776 -10.903778 34.602615 -10.903778 53.795517c0 44.106796 13.60162 79.26305 40.80486 105.468765c27.20324 26.205688 64.86061 39.308563 112.97212 39.308563c25.854324 0 50.92177 -6.3668823 75.20236 -19.100647c24.280579 -12.733765 43.839905 -29.988922 58.67804 -51.765503l-21.582733 -11.62648c-12.589935 17.347458 -26.26648 30.358017 -41.029663 39.031754c-14.688263 8.673706 -32.936157 13.01059 -54.743713 13.01059c-30.1259 0 -54.481415 -10.826813 -73.06656 -32.480316c-18.510193 -21.715088 -27.76529 -49.735504 -27.76529 -84.06128c0 -21.77658 2.585434 -40.508133 7.756302 -56.19464c5.170868 -15.686523 11.915466 -28.143463 20.23381 -37.37082c9.217621 -10.150101 18.69754 -17.101372 28.439758 -20.853844c9.817139 -3.8139648 20.121399 -5.7209625 30.912766 -5.7209625c9.217621 0 17.798264 0.98426056 25.741913 2.9527588c8.018585 1.90699 14.051254 5.7209625 18.098022 11.441925c-0.449646 4.0600433 -2.0233917 10.488441 -4.721222 19.285187c-2.6978455 8.735245 -4.046768 17.255173 -4.046768 25.559792c0 6.828247 3.6345825 13.01059 10.903778 18.546997c7.344116 5.5364227 17.648376 8.304626 30.91278 8.304626c12.365112 0 21.245483 -3.53714 26.641174 -10.611465c5.395691 -7.1358185 8.093536 -15.317413 8.093536 -24.544777c0 -22.145676 -10.229309 -39.616135 -30.687958 -52.411423c-20.458649 -12.856785 -46.98741 -19.285187 -79.586334 -19.285187z" fill-rule="evenodd"/></g></svg>